<?xml version="1.0" encoding="utf-8"?>
<svg version="1.1" xmlns:xlink="http://www.w3.org/1999/xlink" width="400px" height="224px" xmlns="http://www.w3.org/2000/svg">
  <g transform="matrix(1 0 0 1 0 -58 )">
    <path d="M 0 58  L 400 58  L 400 282  L 0 282  L 0 58  " fill-rule="nonzero" fill="#cccccc" stroke="none" />
    <path d="M 16 74  L 384 74  L 384 266  L 16 266  L 16 74  " fill-rule="nonzero" fill="#ffffff" stroke="none" />
    <path d="M 224.8 125.2  C 215.392 125.2  208 117.808  208 108.4  C 208 98.992  215.392 91.6  224.8 91.6  C 234.208 91.6  241.6 98.992  241.6 108.4  C 241.6 117.808  234.208 125.2  224.8 125.2  " fill-rule="nonzero" fill="#cccccc" stroke="none" />
    <path d="M 22 261  L 22 161.45  L 111.25 116.2  L 236.2 200.184  L 307.6 143.35  L 379 200.184  L 379 261  L 22 261  " fill-rule="nonzero" fill="#169bd5" stroke="none" />
  </g>
</svg>