<?xml version="1.0" encoding="utf-8"?>
<svg version="1.1" xmlns:xlink="http://www.w3.org/1999/xlink" width="12px" height="12px" viewBox="344 114  12 12" xmlns="http://www.w3.org/2000/svg">
  <path d="M 350 114  C 353.36 114  356 116.64  356 120  C 356 123.36  353.36 126  350 126  C 346.64 126  344 123.36  344 120  C 344 116.64  346.64 114  350 114  Z " fill-rule="nonzero" fill="#ffffff" stroke="none" />
  <path d="M 350 114.5  C 353.08 114.5  355.5 116.92  355.5 120  C 355.5 123.08  353.08 125.5  350 125.5  C 346.92 125.5  344.5 123.08  344.5 120  C 344.5 116.92  346.92 114.5  350 114.5  Z " stroke-width="1" stroke="#797979" fill="none" />
  <path d="M 350 123  C 348.32 123  347 121.68  347 120  C 347 118.32  348.32 117  350 117  C 351.68 117  353 118.32  353 120  C 353 121.68  351.68 123  350 123  " fill-rule="nonzero" fill="#797979" stroke="none" />
</svg>