<?xml version="1.0" encoding="utf-8"?>
<svg version="1.1" xmlns:xlink="http://www.w3.org/1999/xlink" width="12px" height="12px" viewBox="536 114  12 12" xmlns="http://www.w3.org/2000/svg">
  <path d="M 542 114  C 545.36 114  548 116.64  548 120  C 548 123.36  545.36 126  542 126  C 538.64 126  536 123.36  536 120  C 536 116.64  538.64 114  542 114  Z " fill-rule="nonzero" fill="#ffffff" stroke="none" />
  <path d="M 542 114.5  C 545.08 114.5  547.5 116.92  547.5 120  C 547.5 123.08  545.08 125.5  542 125.5  C 538.92 125.5  536.5 123.08  536.5 120  C 536.5 116.92  538.92 114.5  542 114.5  Z " stroke-width="1" stroke="#797979" fill="none" />
  <path d="M 542 123  C 540.32 123  539 121.68  539 120  C 539 118.32  540.32 117  542 117  C 543.68 117  545 118.32  545 120  C 545 121.68  543.68 123  542 123  " fill-rule="nonzero" fill="#797979" stroke="none" />
</svg>